# This file uses centimeters as units for non-parametric coordinates.

mtllib box.mtl
v -0.198555 0.002033 0.198386
v 0.201209 0.002033 0.195695
v -0.198514 0.656699 0.204467
v 0.201250 0.656699 0.201775
v -0.201209 0.660416 -0.195695
v 0.198555 0.660416 -0.198386
v -0.201250 0.005750 -0.201775
v 0.198513 0.005750 -0.204468
vt 0.006246 0.001840
vt 0.286211 0.004441
vt 0.281956 0.462463
vt 0.001992 0.459863
vt 0.292581 0.004441
vt 0.572545 0.001840
vt 0.576799 0.459863
vt 0.296835 0.462463
vt 0.432473 0.466455
vt 0.712159 0.468338
vt 0.710273 0.748302
vt 0.430587 0.746419
vt 0.142881 0.468338
vt 0.422566 0.466455
vt 0.424452 0.746419
vt 0.144766 0.748302
vt 0.582975 0.001840
vt 0.862660 0.001840
vt 0.862689 0.459863
vt 0.583003 0.459863
vt 0.718322 0.463854
vt 0.998008 0.463854
vt 0.997979 0.921877
vt 0.718294 0.921877
vn 0.006733 -0.009288 0.999934
vn 0.006733 -0.009288 0.999934
vn 0.006733 -0.009288 0.999934
vn 0.006733 -0.009288 0.999934
vn 0.000063 0.999957 0.009288
vn 0.000063 0.999957 0.009288
vn 0.000063 0.999957 0.009288
vn 0.000063 0.999957 0.009288
vn -0.006734 0.009288 -0.999934
vn -0.006734 0.009288 -0.999934
vn -0.006734 0.009288 -0.999934
vn -0.006734 0.009288 -0.999934
vn -0.000063 -0.999957 -0.009288
vn -0.000063 -0.999957 -0.009288
vn -0.000063 -0.999957 -0.009288
vn -0.000063 -0.999957 -0.009288
vn 0.999977 -0.000000 -0.006736
vn 0.999977 -0.000000 -0.006736
vn 0.999977 -0.000000 -0.006736
vn 0.999977 -0.000000 -0.006736
vn -0.999977 -0.000000 0.006734
vn -0.999977 -0.000000 0.006734
vn -0.999977 -0.000000 0.006734
vn -0.999977 -0.000000 0.006734
s off
usemtl lambert2SG
f 1/17/1 2/18/2 4/19/3 3/20/4
f 3/9/5 4/10/6 6/11/7 5/12/8
f 5/21/9 6/22/10 8/23/11 7/24/12
f 7/13/13 8/14/14 2/15/15 1/16/16
f 2/1/17 8/2/18 6/3/19 4/4/20
f 7/5/21 1/6/22 3/7/23 5/8/24
